# Blender v2.82 (sub 7) OBJ File: 'Fence_1_Post.blend'
# www.blender.org
mtllib Fence_1_Post.mtl
o Cube.009_Cube.015
v 0.230771 1.991228 -0.203120
v 0.230771 -0.008772 -0.203120
v 0.230771 1.991228 0.215957
v 0.230771 -0.008772 0.215957
v -0.188306 1.991228 -0.203120
v -0.188306 -0.008772 -0.203120
v -0.188306 1.991228 0.215957
v -0.188306 -0.008772 0.215957
v 0.165357 2.060910 0.150543
v -0.122892 2.060910 0.150543
v 0.165357 2.060910 -0.137706
v -0.122892 2.060910 -0.137706
vt 0.625000 1.000000
vt 0.625000 0.750000
vt 0.625000 0.750000
vt 0.625000 1.000000
vt 0.375000 0.750000
vt 0.375000 1.000000
vt 0.375000 0.000000
vt 0.625000 0.000000
vt 0.625000 0.250000
vt 0.375000 0.250000
vt 0.125000 0.500000
vt 0.375000 0.500000
vt 0.125000 0.750000
vt 0.625000 0.500000
vt 0.625000 0.500000
vt 0.875000 0.500000
vt 0.875000 0.750000
vt 0.625000 0.000000
vt 0.625000 0.250000
vn 0.0000 0.6844 0.7291
vn 0.0000 0.0000 1.0000
vn -1.0000 0.0000 0.0000
vn 0.0000 -1.0000 0.0000
vn 1.0000 0.0000 0.0000
vn 0.0000 0.0000 -1.0000
vn 0.0000 1.0000 0.0000
vn -0.7291 0.6844 0.0000
vn 0.7291 0.6844 0.0000
vn 0.0000 0.6844 -0.7291
usemtl Material.006
s off
f 7/1/1 3/2/1 9/3/1 10/4/1
f 4/5/2 3/2/2 7/1/2 8/6/2
f 8/7/3 7/8/3 5/9/3 6/10/3
f 6/11/4 2/12/4 4/5/4 8/13/4
f 2/12/5 1/14/5 3/2/5 4/5/5
f 6/10/6 5/9/6 1/14/6 2/12/6
f 11/15/7 12/16/7 10/17/7 9/3/7
f 5/9/8 7/8/8 10/18/8 12/19/8
f 3/2/9 1/14/9 11/15/9 9/3/9
f 1/14/10 5/9/10 12/19/10 11/15/10
