# Blender v2.82 (sub 7) OBJ File: 'Hut.blend'
# www.blender.org
mtllib Hut.mtl
o Cube_Cube.001
v -1.702016 0.058803 1.323820
v -1.676543 2.233233 -0.005144
v -1.489701 0.021094 1.045300
v -1.304740 2.038936 0.002345
v 1.893201 0.058803 1.323820
v 1.884296 2.225883 -0.000684
v 1.770706 0.021094 1.045300
v 1.478525 2.038936 0.002345
vt 0.375000 0.000000
vt 0.625000 0.000000
vt 0.625000 0.250000
vt 0.375000 0.188319
vt 0.625000 0.500000
vt 0.375000 0.561681
vt 0.624155 0.750000
vt 0.375000 0.750000
vt 0.625000 1.000000
vt 0.375000 1.000000
vt 0.125000 0.561681
vt 0.125000 0.750000
vt 0.875000 0.500000
vt 0.875000 0.750000
vn -0.5121 -0.4034 -0.7583
vn 0.0000 -0.4592 -0.8884
vn 0.5497 -0.3810 -0.7434
vn 0.0000 0.5215 0.8533
vn 0.0000 -0.9910 0.1342
vn 0.0007 -0.0276 -0.9996
usemtl None
s off
f 1/1/1 2/2/1 4/3/1 3/4/1
f 3/4/2 4/3/2 8/5/2 7/6/2
f 7/6/3 8/5/3 6/7/3 5/8/3
f 5/8/4 6/7/4 2/9/4 1/10/4
f 3/11/5 7/6/5 5/8/5 1/12/5
f 8/5/6 4/13/6 2/14/6 6/7/6
o Plane.001_Plane.002
v 1.410391 2.017695 0.004205
v 1.493639 0.019428 1.053825
v 1.493639 0.019428 -1.045415
v 1.370495 -0.006436 0.278043
v 1.383456 0.000586 -0.287783
v 1.431771 0.801896 0.231305
v 1.399366 0.809748 -0.255147
v 1.541648 0.000033 -0.289953
v 1.542339 0.002313 0.274785
v 1.457405 0.867232 -0.295435
v 1.457447 0.861866 0.289443
vt 0.000000 0.000000
vt 1.000000 0.000000
vt 1.000000 0.364787
vt 0.565254 0.141522
vt 0.564745 0.425110
vt 1.000000 0.644404
vt 1.000000 1.000000
vt 1.000000 0.604698
vt 0.604497 0.407521
vt 0.608427 0.206989
vt 1.000000 0.403845
vn 0.9980 0.0633 0.0001
vn 0.9987 -0.0478 -0.0191
vn 0.9445 -0.3136 0.0981
usemtl None
s off
f 9/15/7 10/16/7 17/17/7 19/18/7 18/19/7 16/20/7 11/21/7
f 13/22/8 15/23/8 14/24/8 12/25/8
f 16/20/9 18/19/9 19/18/9 17/17/9 12/25/9 14/24/9 15/23/9 13/22/9
o Plane.002_Plane.003
v -1.244385 2.017695 0.004205
v -1.161138 0.019428 1.053825
v -1.161138 0.019428 -1.045415
vt 0.000000 0.000000
vt 1.000000 0.000000
vt 1.000000 1.000000
vn 0.9991 0.0416 0.0000
usemtl None
s off
f 20/26/10 21/27/10 22/28/10
o Cube.001_Cube.003
v 1.915140 0.058803 -1.329565
v 1.889667 2.233233 -0.000601
v 1.702825 0.021094 -1.051045
v 1.517864 2.038936 -0.008090
v -1.680077 0.058803 -1.329565
v -1.671173 2.225883 -0.005060
v -1.557582 0.021094 -1.051044
v -1.265401 2.038936 -0.008090
vt 0.375000 0.000000
vt 0.625000 0.000000
vt 0.625000 0.250000
vt 0.375000 0.188319
vt 0.625000 0.500000
vt 0.375000 0.561681
vt 0.624155 0.750000
vt 0.375000 0.750000
vt 0.625000 1.000000
vt 0.375000 1.000000
vt 0.125000 0.561681
vt 0.125000 0.750000
vt 0.875000 0.500000
vt 0.875000 0.750000
vn 0.5121 -0.4034 0.7583
vn 0.0000 -0.4592 0.8884
vn -0.5497 -0.3810 0.7434
vn -0.0000 0.5215 -0.8533
vn -0.0000 -0.9910 -0.1342
vn -0.0007 -0.0276 0.9996
usemtl None
s off
f 23/29/11 24/30/11 26/31/11 25/32/11
f 25/32/12 26/31/12 30/33/12 29/34/12
f 29/34/13 30/33/13 28/35/13 27/36/13
f 27/36/14 28/35/14 24/37/14 23/38/14
f 25/39/15 29/34/15 27/36/15 23/40/15
f 30/33/16 26/41/16 24/42/16 28/35/16
o Cube.002_Cube.004
v 1.561944 0.880218 -0.399373
v 1.561944 0.880218 0.409793
v 1.561944 0.805688 -0.399373
v 1.561944 0.805688 0.409793
v 1.481170 0.880218 -0.399373
v 1.481170 0.880218 0.409793
v 1.481170 0.805688 -0.399373
v 1.481170 0.805688 0.409793
vt 0.375000 0.000000
vt 0.625000 0.000000
vt 0.625000 0.250000
vt 0.375000 0.250000
vt 0.625000 0.500000
vt 0.375000 0.500000
vt 0.625000 0.750000
vt 0.375000 0.750000
vt 0.625000 1.000000
vt 0.375000 1.000000
vt 0.125000 0.500000
vt 0.125000 0.750000
vt 0.875000 0.500000
vt 0.875000 0.750000
vn 1.0000 0.0000 0.0000
vn 0.0000 -1.0000 0.0000
vn -1.0000 0.0000 0.0000
vn 0.0000 1.0000 0.0000
vn 0.0000 0.0000 -1.0000
vn 0.0000 0.0000 1.0000
usemtl None
s off
f 31/43/17 32/44/17 34/45/17 33/46/17
f 33/46/18 34/45/18 38/47/18 37/48/18
f 37/48/19 38/47/19 36/49/19 35/50/19
f 35/50/20 36/49/20 32/51/20 31/52/20
f 33/53/21 37/48/21 35/50/21 31/54/21
f 38/47/22 34/55/22 32/56/22 36/49/22
o Cube.003_Cube.005
v 1.541777 0.001062 -0.288502
v 1.541777 0.810228 -0.288502
v 1.541777 0.001062 -0.213972
v 1.541777 0.810228 -0.213972
v 1.461003 0.001062 -0.288502
v 1.461003 0.810228 -0.288502
v 1.461003 0.001062 -0.213972
v 1.461003 0.810228 -0.213972
vt 0.375000 0.000000
vt 0.625000 0.000000
vt 0.625000 0.250000
vt 0.375000 0.250000
vt 0.625000 0.500000
vt 0.375000 0.500000
vt 0.625000 0.750000
vt 0.375000 0.750000
vt 0.625000 1.000000
vt 0.375000 1.000000
vt 0.125000 0.500000
vt 0.125000 0.750000
vt 0.875000 0.500000
vt 0.875000 0.750000
vn 1.0000 0.0000 0.0000
vn 0.0000 0.0000 1.0000
vn -1.0000 0.0000 0.0000
vn 0.0000 0.0000 -1.0000
vn 0.0000 -1.0000 0.0000
vn 0.0000 1.0000 0.0000
usemtl None
s off
f 39/57/23 40/58/23 42/59/23 41/60/23
f 41/60/24 42/59/24 46/61/24 45/62/24
f 45/62/25 46/61/25 44/63/25 43/64/25
f 43/64/26 44/63/26 40/65/26 39/66/26
f 41/67/27 45/62/27 43/64/27 39/68/27
f 46/61/28 42/69/28 40/70/28 44/63/28
o Cube.004_Cube.006
v 1.541777 0.001062 0.204251
v 1.541777 0.810228 0.204251
v 1.541777 0.001062 0.278781
v 1.541777 0.810228 0.278781
v 1.461003 0.001062 0.204251
v 1.461003 0.810228 0.204251
v 1.461003 0.001062 0.278781
v 1.461003 0.810228 0.278781
vt 0.375000 0.000000
vt 0.625000 0.000000
vt 0.625000 0.250000
vt 0.375000 0.250000
vt 0.625000 0.500000
vt 0.375000 0.500000
vt 0.625000 0.750000
vt 0.375000 0.750000
vt 0.625000 1.000000
vt 0.375000 1.000000
vt 0.125000 0.500000
vt 0.125000 0.750000
vt 0.875000 0.500000
vt 0.875000 0.750000
vn 1.0000 0.0000 0.0000
vn 0.0000 0.0000 1.0000
vn -1.0000 0.0000 0.0000
vn 0.0000 0.0000 -1.0000
vn 0.0000 -1.0000 0.0000
vn 0.0000 1.0000 0.0000
usemtl None
s off
f 47/71/29 48/72/29 50/73/29 49/74/29
f 49/74/30 50/73/30 54/75/30 53/76/30
f 53/76/31 54/75/31 52/77/31 51/78/31
f 51/78/32 52/77/32 48/79/32 47/80/32
f 49/81/33 53/76/33 51/78/33 47/82/33
f 54/75/34 50/83/34 48/84/34 52/77/34
